<svg width="60" height="63" viewBox="0 0 60 63" fill="none" xmlns="http://www.w3.org/2000/svg">
<path d="M7.80624 27.6162C-2.89303 41.6219 -1.10311 58.1793 4.31774 62.9366C13.5278 64.3995 7.10974 40.1292 17.6017 32.6385C26.1374 26.5445 44.459 27.2988 43.9463 27.606C43.4336 27.9131 30.4008 31.9515 31.1206 38.7807C31.8404 45.6098 38.5052 41.6169 39.9622 40.325C41.4193 39.0332 50.71 32.9081 56.0977 31.9142C61.4853 30.9203 60.9454 25.7984 56.61 23.6487C53.1417 21.9289 50.0319 17.7231 48.9105 15.8351C42.668 6.72979 46.4815 4.72425 43.4593 1.5085C40.437 -1.70724 38.0356 0.569245 38.0448 5.03171C38.0521 8.60168 41.0403 16.0824 42.5335 19.3765C35.4158 16.2873 18.5055 13.6105 7.80624 27.6162Z" fill="url(#paint0_linear_1005_25643)"/>
<defs>
<linearGradient id="paint0_linear_1005_25643" x1="0" y1="0" x2="61.8327" y2="2.46118" gradientUnits="userSpaceOnUse">
<stop stop-color="#98E8CC"/>
<stop offset="0.41969" stop-color="#C2E69A"/>
<stop offset="1" stop-color="#E2E7B9"/>
</linearGradient>
</defs>
</svg>
