<svg width="42" height="51" viewBox="0 0 42 51" fill="none" xmlns="http://www.w3.org/2000/svg">
<path d="M26.2456 40.2999C17.4813 50.7002 4.72433 52.083 0.244797 48.772C-2.38429 42.0529 16.9447 42.8936 20.8407 33.7264C24.0103 26.2684 20.4025 12.546 20.2564 12.9842C20.1104 13.4224 19.2339 23.9396 13.9753 24.5239C8.71676 25.1082 10.6157 19.4114 11.3461 18.0967C12.0764 16.7821 15.1441 8.74834 14.9981 4.51225C14.852 0.276169 18.7959 -0.162047 21.1331 2.75939C23.0028 5.09654 26.6838 6.75202 28.2906 7.28762C36.1785 10.5012 37.0549 7.28762 39.9763 9.04048C42.8978 10.7933 41.5831 12.9844 38.2235 13.7148C35.5358 14.2991 29.4105 13.2766 26.6838 12.6923C30.1895 17.5613 35.0099 29.8995 26.2456 40.2999Z" fill="#FCFCFC"/>
</svg>
