<svg width="62" height="49" viewBox="0 0 62 49" fill="none" xmlns="http://www.w3.org/2000/svg">
<path d="M33.2143 16.6071C33.2143 7.43527 25.779 0 16.6071 0C7.43527 0 0 7.43527 0 16.6071V32.1071C0 41.279 7.43527 48.7143 16.6071 48.7143C25.779 48.7143 33.2143 41.279 33.2143 32.1071V16.6071Z" fill="#D3D3D3"/>
<path d="M33.2143 16.6071C33.2143 7.43527 25.779 0 16.6071 0C7.43527 0 0 7.43527 0 16.6071V32.1071C0 41.279 7.43527 48.7143 16.6071 48.7143C25.779 48.7143 33.2143 41.279 33.2143 32.1071V16.6071Z" fill="url(#paint0_radial_1005_25623)"/>
<path d="M33.2143 16.6071C33.2143 7.43527 25.779 0 16.6071 0C7.43527 0 0 7.43527 0 16.6071V32.1071C0 41.279 7.43527 48.7143 16.6071 48.7143C25.779 48.7143 33.2143 41.279 33.2143 32.1071V16.6071Z" fill="url(#paint1_linear_1005_25623)"/>
<path d="M33.2143 16.6071C33.2143 7.43527 25.779 0 16.6071 0C7.43527 0 0 7.43527 0 16.6071V32.1071C0 41.279 7.43527 48.7143 16.6071 48.7143C25.779 48.7143 33.2143 41.279 33.2143 32.1071V16.6071Z" fill="url(#paint2_radial_1005_25623)"/>
<path d="M33.2143 16.6071C33.2143 7.43527 25.779 0 16.6071 0C7.43527 0 0 7.43527 0 16.6071V32.1071C0 41.279 7.43527 48.7143 16.6071 48.7143C25.779 48.7143 33.2143 41.279 33.2143 32.1071V16.6071Z" fill="url(#paint3_radial_1005_25623)"/>
<path d="M33.2143 16.6071C33.2143 7.43527 25.779 0 16.6071 0C7.43527 0 0 7.43527 0 16.6071V32.1071C0 41.279 7.43527 48.7143 16.6071 48.7143C25.779 48.7143 33.2143 41.279 33.2143 32.1071V16.6071Z" fill="url(#paint4_radial_1005_25623)"/>
<path d="M33.2143 16.6071C33.2143 7.43527 25.779 0 16.6071 0C7.43527 0 0 7.43527 0 16.6071V32.1071C0 41.279 7.43527 48.7143 16.6071 48.7143C25.779 48.7143 33.2143 41.279 33.2143 32.1071V16.6071Z" fill="url(#paint5_radial_1005_25623)"/>
<path d="M33.2143 16.6071C33.2143 7.43527 25.779 0 16.6071 0C7.43527 0 0 7.43527 0 16.6071V32.1071C0 41.279 7.43527 48.7143 16.6071 48.7143C25.779 48.7143 33.2143 41.279 33.2143 32.1071V16.6071Z" fill="url(#paint6_radial_1005_25623)"/>
<g filter="url(#filter0_f_1005_25623)">
<path d="M31.8284 12.2824C31.8284 11.2209 30.9679 10.3604 29.9064 10.3604C28.8449 10.3604 27.9844 11.2209 27.9844 12.2824V34.2702C27.9844 35.3317 28.8449 36.1922 29.9064 36.1922C30.9679 36.1922 31.8284 35.3317 31.8284 34.2702V12.2824Z" fill="#6F6873"/>
</g>
<path d="M61.9994 16.6071C61.9994 7.43527 54.5642 0 45.3923 0C36.2204 0 28.7852 7.43527 28.7852 16.6071V32.1071C28.7852 41.279 36.2204 48.7143 45.3923 48.7143C54.5642 48.7143 61.9994 41.279 61.9994 32.1071V16.6071Z" fill="url(#paint7_radial_1005_25623)"/>
<path d="M61.9994 16.6071C61.9994 7.43527 54.5642 0 45.3923 0C36.2204 0 28.7852 7.43527 28.7852 16.6071V32.1071C28.7852 41.279 36.2204 48.7143 45.3923 48.7143C54.5642 48.7143 61.9994 41.279 61.9994 32.1071V16.6071Z" fill="url(#paint8_linear_1005_25623)"/>
<path d="M61.9994 16.6071C61.9994 7.43527 54.5642 0 45.3923 0C36.2204 0 28.7852 7.43527 28.7852 16.6071V32.1071C28.7852 41.279 36.2204 48.7143 45.3923 48.7143C54.5642 48.7143 61.9994 41.279 61.9994 32.1071V16.6071Z" fill="url(#paint9_radial_1005_25623)"/>
<path d="M46.5 18.8213C46.5 14.5411 43.0302 11.0713 38.75 11.0713C34.4698 11.0713 31 14.5411 31 18.8213V29.8927C31 34.1729 34.4698 37.6427 38.75 37.6427C43.0302 37.6427 46.5 34.1729 46.5 29.8927V18.8213Z" fill="url(#paint10_linear_1005_25623)"/>
<path d="M46.5 18.8213C46.5 14.5411 43.0302 11.0713 38.75 11.0713C34.4698 11.0713 31 14.5411 31 18.8213V29.8927C31 34.1729 34.4698 37.6427 38.75 37.6427C43.0302 37.6427 46.5 34.1729 46.5 29.8927V18.8213Z" fill="url(#paint11_radial_1005_25623)"/>
<path d="M17.8516 18.8213C17.8516 14.5411 14.3818 11.0713 10.1016 11.0713C5.82136 11.0713 2.35156 14.5411 2.35156 18.8213V29.8927C2.35156 34.1729 5.82136 37.6427 10.1016 37.6427C14.3818 37.6427 17.8516 34.1729 17.8516 29.8927V18.8213Z" fill="url(#paint12_linear_1005_25623)"/>
<path d="M17.8516 18.8213C17.8516 14.5411 14.3818 11.0713 10.1016 11.0713C5.82136 11.0713 2.35156 14.5411 2.35156 18.8213V29.8927C2.35156 34.1729 5.82136 37.6427 10.1016 37.6427C14.3818 37.6427 17.8516 34.1729 17.8516 29.8927V18.8213Z" fill="url(#paint13_radial_1005_25623)"/>
<path d="M14.922 19.6201C15.7444 18.9355 15.7065 17.534 14.8372 16.4898C13.968 15.4456 12.5967 15.154 11.7743 15.8386C10.9519 16.5232 10.9898 17.9246 11.859 18.9689C12.7282 20.0131 14.0996 20.3047 14.922 19.6201Z" fill="url(#paint14_radial_1005_25623)"/>
<path d="M43.6993 19.6201C44.5217 18.9355 44.4838 17.534 43.6146 16.4898C42.7454 15.4456 41.374 15.154 40.5516 15.8386C39.7292 16.5232 39.7671 17.9246 40.6364 18.9689C41.5056 20.0131 42.8769 20.3047 43.6993 19.6201Z" fill="url(#paint15_radial_1005_25623)"/>
<defs>
<filter id="filter0_f_1005_25623" x="26.7844" y="9.16035" width="6.24375" height="28.232" filterUnits="userSpaceOnUse" color-interpolation-filters="sRGB">
<feFlood flood-opacity="0" result="BackgroundImageFix"/>
<feBlend mode="normal" in="SourceGraphic" in2="BackgroundImageFix" result="shape"/>
<feGaussianBlur stdDeviation="0.6" result="effect1_foregroundBlur_1005_25623"/>
</filter>
<radialGradient id="paint0_radial_1005_25623" cx="0" cy="0" r="1" gradientUnits="userSpaceOnUse" gradientTransform="translate(22.2119 12.1782) rotate(101.077) scale(46.8186 36.2067)">
<stop stop-color="#FAF7FC"/>
<stop offset="0.457" stop-color="#D8D0DD"/>
<stop offset="0.708" stop-color="#D0B3E3"/>
<stop offset="1" stop-color="#CFABE4"/>
</radialGradient>
<linearGradient id="paint1_linear_1005_25623" x1="-6.98829" y1="27.9554" x2="14.3552" y2="30.8472" gradientUnits="userSpaceOnUse">
<stop offset="0.399" stop-color="#9B969E"/>
<stop offset="1" stop-color="#9A959E" stop-opacity="0"/>
</linearGradient>
<radialGradient id="paint2_radial_1005_25623" cx="0" cy="0" r="1" gradientUnits="userSpaceOnUse" gradientTransform="translate(30.7454 34.41) rotate(-133.794) scale(44.4243 48.0857)">
<stop offset="0.844" stop-color="#9A959E" stop-opacity="0"/>
<stop offset="0.949" stop-color="#949296"/>
</radialGradient>
<radialGradient id="paint3_radial_1005_25623" cx="0" cy="0" r="1" gradientUnits="userSpaceOnUse" gradientTransform="translate(37.8711 32.2741) rotate(-155.387) scale(19.0074 46.2157)">
<stop offset="0.022" stop-color="#D1AFE5"/>
<stop offset="1" stop-color="#D1AFE5" stop-opacity="0"/>
</radialGradient>
<radialGradient id="paint4_radial_1005_25623" cx="0" cy="0" r="1" gradientUnits="userSpaceOnUse" gradientTransform="translate(31.6355 29.2441) rotate(180) scale(12.2923 34.9171)">
<stop stop-color="#ABA5B0"/>
<stop offset="1" stop-color="#ABA5B0" stop-opacity="0"/>
</radialGradient>
<radialGradient id="paint5_radial_1005_25623" cx="0" cy="0" r="1" gradientUnits="userSpaceOnUse" gradientTransform="translate(37.1587 34.2311) rotate(-137.153) scale(16.7659 46.1953)">
<stop stop-color="#B689D0"/>
<stop offset="1" stop-color="#B689D0" stop-opacity="0"/>
</radialGradient>
<radialGradient id="paint6_radial_1005_25623" cx="0" cy="0" r="1" gradientUnits="userSpaceOnUse" gradientTransform="translate(27.5858 9.00992) rotate(140.964) scale(7.78275 14.804)">
<stop stop-color="#F3F2F4"/>
<stop offset="1" stop-color="#F3F2F4" stop-opacity="0"/>
</radialGradient>
<radialGradient id="paint7_radial_1005_25623" cx="0" cy="0" r="1" gradientUnits="userSpaceOnUse" gradientTransform="translate(52.2407 15.4997) rotate(103.51) scale(43.838 33.9016)">
<stop stop-color="#FAF7FC"/>
<stop offset="0.457" stop-color="#D8D0DD"/>
<stop offset="0.708" stop-color="#D0B3E3"/>
<stop offset="1" stop-color="#CFABE4"/>
</radialGradient>
<linearGradient id="paint8_linear_1005_25623" x1="21.7969" y1="27.9554" x2="42.8326" y2="29.8929" gradientUnits="userSpaceOnUse">
<stop offset="0.212" stop-color="#9B969E"/>
<stop offset="1" stop-color="#9A959E" stop-opacity="0"/>
</linearGradient>
<radialGradient id="paint9_radial_1005_25623" cx="0" cy="0" r="1" gradientUnits="userSpaceOnUse" gradientTransform="translate(56.3709 9.00965) rotate(140.964) scale(7.78275 14.804)">
<stop stop-color="#F3F2F4"/>
<stop offset="1" stop-color="#F3F2F4" stop-opacity="0"/>
</radialGradient>
<linearGradient id="paint10_linear_1005_25623" x1="38.75" y1="11.0713" x2="38.75" y2="37.6427" gradientUnits="userSpaceOnUse">
<stop offset="0.354" stop-color="#232224"/>
<stop offset="1" stop-color="#623C86"/>
</linearGradient>
<radialGradient id="paint11_radial_1005_25623" cx="0" cy="0" r="1" gradientUnits="userSpaceOnUse" gradientTransform="translate(40.7561 22.9731) rotate(90) scale(14.6696 4.81348)">
<stop offset="0.354" stop-color="#443753"/>
<stop offset="1" stop-color="#433750" stop-opacity="0"/>
</radialGradient>
<linearGradient id="paint12_linear_1005_25623" x1="10.1016" y1="11.0713" x2="10.1016" y2="37.6427" gradientUnits="userSpaceOnUse">
<stop offset="0.354" stop-color="#232224"/>
<stop offset="1" stop-color="#623C86"/>
</linearGradient>
<radialGradient id="paint13_radial_1005_25623" cx="0" cy="0" r="1" gradientUnits="userSpaceOnUse" gradientTransform="translate(12.1077 22.9731) rotate(90) scale(14.6696 4.81348)">
<stop offset="0.354" stop-color="#443753"/>
<stop offset="1" stop-color="#433750" stop-opacity="0"/>
</radialGradient>
<radialGradient id="paint14_radial_1005_25623" cx="0" cy="0" r="1" gradientUnits="userSpaceOnUse" gradientTransform="translate(12.1789 16.2624) rotate(87.7401) scale(5.26303 5.53875)">
<stop stop-color="white"/>
<stop offset="1" stop-color="#F4F4F4" stop-opacity="0"/>
</radialGradient>
<radialGradient id="paint15_radial_1005_25623" cx="0" cy="0" r="1" gradientUnits="userSpaceOnUse" gradientTransform="translate(40.9579 16.261) rotate(87.7401) scale(5.26303 5.53875)">
<stop stop-color="white"/>
<stop offset="1" stop-color="#F4F4F4" stop-opacity="0"/>
</radialGradient>
</defs>
</svg>
