<svg width="56" height="84" viewBox="0 0 56 84" fill="none" xmlns="http://www.w3.org/2000/svg">
<path d="M11.6071 83.8777C11.3971 83.8743 11.1918 83.8175 11.0124 83.7133C10.8329 83.6091 10.6857 83.4613 10.5859 83.2849C10.4861 83.1085 10.4372 82.9099 10.4444 82.7095C10.4515 82.5092 10.5144 82.3142 10.6266 82.1447L24.4489 61.7642L1.27123 60.0173C1.03305 59.9979 0.806598 59.9102 0.621677 59.7656C0.436756 59.621 0.302026 59.4264 0.235212 59.2073C0.168398 58.9883 0.17263 58.755 0.247351 58.5383C0.322073 58.3216 0.463783 58.1315 0.653839 57.9932L21.5799 42.9088L0.334247 22.0501C0.161783 21.8804 0.0494011 21.6634 0.0129178 21.4297C-0.0235654 21.1959 0.0176874 20.9571 0.13087 20.7468C0.244313 20.5357 0.424902 20.3643 0.646734 20.2572C0.868566 20.1501 1.12024 20.1128 1.36566 20.1507L19.1974 22.9582L10.6484 9.08004C10.5193 8.86946 10.4651 8.62467 10.4939 8.38226C10.5227 8.13986 10.633 7.91286 10.8082 7.73521C10.984 7.55901 11.2151 7.44212 11.4666 7.40211C11.7182 7.3621 11.9765 7.40115 12.2027 7.51338L37.298 20.0536L40.1452 1.65573C40.0332 1.50605 39.9614 1.33239 39.9361 1.15002C39.9109 0.967652 39.933 0.782154 40.0004 0.609834C40.0679 0.437514 40.1787 0.283649 40.323 0.161764C40.4674 0.0398798 40.6409 -0.046292 40.8284 -0.0891758C41.0158 -0.13206 41.2114 -0.130342 41.398 -0.0841751C41.5846 -0.0380078 41.7564 0.051196 41.8984 0.175595C42.0404 0.299993 42.1482 0.455777 42.2123 0.629252C42.2764 0.802728 42.2949 0.988582 42.2662 1.17048L54.9845 18.2443C55.0742 18.3645 55.1381 18.5003 55.1728 18.6441C55.2074 18.7879 55.2121 18.9367 55.1865 19.0822C55.1608 19.2277 55.1054 19.3669 55.0234 19.492C54.9414 19.617 54.8344 19.7254 54.7085 19.811C54.5826 19.8966 54.4402 19.9576 54.2896 19.9907C54.139 20.0238 53.983 20.0282 53.8305 20.0037C53.6781 19.9793 53.5322 19.9264 53.4012 19.8481C53.2702 19.7699 53.1566 19.6677 53.0669 19.5476L42.041 4.74746L39.3826 21.9461C39.3551 22.1231 39.2837 22.2913 39.1743 22.4367C39.0649 22.5821 38.9207 22.7004 38.7537 22.7818C38.5867 22.8632 38.4017 22.9053 38.2142 22.9046C38.0267 22.9039 37.842 22.8605 37.6757 22.7779L14.7667 11.333L22.5096 23.8871C22.742 24.2683 22.7275 24.7397 22.466 25.1002C22.3392 25.2761 22.1626 25.4138 21.9568 25.4973C21.751 25.5808 21.5245 25.6065 21.3038 25.5716L4.518 22.9374L24.202 42.2642C24.318 42.3792 24.4072 42.5163 24.4636 42.6666C24.5201 42.8169 24.5425 42.9768 24.5295 43.136C24.5164 43.2952 24.4682 43.4499 24.388 43.5899C24.3077 43.73 24.1973 43.8523 24.064 43.9487L4.55431 58.0001L26.6062 59.6707C26.8087 59.6879 27.0032 59.7546 27.1709 59.8644C27.3386 59.9741 27.4739 60.1233 27.5637 60.2974C27.6534 60.4716 27.6947 60.6648 27.6835 60.8586C27.6722 61.0524 27.6089 61.2401 27.4996 61.4038L12.6022 83.3648C12.3771 83.6975 11.9994 83.8777 11.6071 83.8777Z" fill="#518F5A"/>
</svg>
