<svg width="25" height="25" viewBox="0 0 25 25" fill="none" xmlns="http://www.w3.org/2000/svg">
<path fill-rule="evenodd" clip-rule="evenodd" d="M21.1232 21.4399L15.298 13.2982L23.7778 9.84011L22.2293 6.51338L22.229 6.5135L23.7774 9.83993L15.2976 13.298L21.1228 21.4397L18.2841 23.672L18.2843 23.6723L21.1232 21.4399ZM14.0813 10.2337L14.2656 0.910473H14.2653L14.0809 10.2339L14.0813 10.2337ZM1.21411 9.84009L1.21411 9.84011L9.69352 13.298L9.69354 13.298L1.21411 9.84009ZM6.67068 23.6723L12.4958 14.6991L12.4956 14.6987L6.67035 23.672L6.67068 23.6723ZM15.1864 0L15.0122 8.80958L22.6679 5.31366L25 10.3237L16.7036 13.707L22.3641 21.6185L18.064 25L12.4935 16.3645L6.88878 24.9982L2.58884 21.6169L8.28501 13.7057L0 10.3271L2.27957 5.31024L9.94856 8.8122L9.80918 0H15.1864Z" fill="url(#paint0_linear_1005_25644)"/>
<defs>
<linearGradient id="paint0_linear_1005_25644" x1="0" y1="0" x2="25.7594" y2="1.07659" gradientUnits="userSpaceOnUse">
<stop stop-color="#299D75"/>
<stop offset="0.41969" stop-color="#86B94D"/>
<stop offset="1" stop-color="#BAC937"/>
</linearGradient>
</defs>
</svg>
