<svg width="157" height="36" viewBox="0 0 157 36" fill="none" xmlns="http://www.w3.org/2000/svg">
<path d="M27.4981 17.728V17.7874C27.4981 19.2734 26.3826 20.2185 24.4492 20.2185H20.6953V15.2969H24.4165C26.3232 15.2969 27.4981 16.1171 27.4981 17.728Z" fill="#BCBCBC"/>
<g style="mix-blend-mode:multiply">
<path d="M27.4981 17.728V17.7874C27.4981 19.2734 26.3826 20.2185 24.4492 20.2185H20.6953V15.2969H24.4165C26.3232 15.2969 27.4981 16.1171 27.4981 17.728Z" fill="#BCBCBC"/>
</g>
<path d="M83.4756 10.0067V5.18018H66.2738V7.96793H63.2844V5.18018H0.191406V10.0067C2.7989 10.1945 5.23848 11.362 7.01935 13.2743C8.80021 15.1865 9.79022 17.7016 9.79022 20.3137C9.79022 22.9257 8.80021 25.4409 7.01935 27.3531C5.23848 29.2654 2.7989 30.4328 0.191406 30.6206V35.9911H63.2844V32.5614H66.2738V36H83.4756V30.6206C80.8721 30.4265 78.4381 29.2565 76.6614 27.3452C74.8846 25.4338 73.8964 22.9223 73.8946 20.3137C73.9019 17.7067 74.8921 15.1982 76.6677 13.288C78.4433 11.3779 80.8741 10.2063 83.4756 10.0067V10.0067ZM27.3222 30.8792L23.2798 24.8074L23.2322 24.739L23.1876 24.6707H20.6949V30.8792H15.0076V10.3723H24.7135C27.8517 10.3723 30.0201 11.1926 31.3973 12.5954C31.6627 12.8554 31.9027 13.14 32.1142 13.4453C32.6226 14.1882 32.959 15.035 33.0988 15.924V18.8009C33.0223 19.2431 32.9007 19.6763 32.7359 20.0937C32.2018 21.4105 31.24 22.5096 30.0053 23.2144C29.6809 23.4089 29.3429 23.5797 28.9939 23.7256L33.0988 29.7171L33.89 30.8733L27.3222 30.8792ZM57.8946 30.8792H52.2429V19.1041L51.0531 20.9378L49.6372 23.1044L49.31 23.6037L47.0048 27.1315H46.8887L43.3193 21.6689L41.6684 19.1635V30.8792H36.0852V10.3723H42.0938L44.5359 14.331L46.9899 18.3076L51.5588 10.8983L51.886 10.3723H57.8946V30.8792V30.8792ZM66.2738 30.157H63.2844V25.1551H66.2738V30.157ZM66.2738 22.7597H63.2844V17.7577H66.2738V22.7597ZM66.2738 15.3653H63.2844V10.3604H66.2738V15.3653Z" fill="white"/>
<path d="M33.0977 15.918V18.7949C33.1794 18.3428 33.2193 17.8842 33.2168 17.4248V17.3653C33.2194 16.8803 33.1796 16.396 33.0977 15.918V15.918Z" fill="#050A30"/>
<g style="mix-blend-mode:multiply">
<path d="M27.3218 30.8794H33.0954V33.8246H12.1992V11.6802L15.0072 10.3784V30.8794H20.6945V24.6708H23.1872L23.2318 24.7392L23.2794 24.8076L27.3218 30.8794Z" fill="#BCBCBC"/>
</g>
<g style="mix-blend-mode:multiply">
<path d="M57.8964 30.8794L55.8202 33.8246H33.0977V30.8794H33.8889L33.0977 29.7233V12.2151L36.0871 10.3784V30.8794H41.6554V19.1637L43.2974 21.6691L46.8757 27.1317H46.9917L49.297 23.6039L52.2388 19.1043V30.8794H57.8964Z" fill="#BCBCBC"/>
</g>
<path d="M90.6621 17.5677H88.0742V5.03173H90.671V6.85358C91.3998 5.60236 92.652 4.82666 94.4278 4.82666V7.50147H93.7675C91.8549 7.50147 90.671 8.29798 90.671 10.9579L90.6621 17.5677Z" fill="white"/>
<path d="M100.951 4.82655C101.783 4.80192 102.61 4.97243 103.364 5.32441C104.119 5.67639 104.781 6.20006 105.296 6.85347V5.03162H107.917V17.5676H105.296V15.7012C104.778 16.3674 104.111 16.9028 103.348 17.2641C102.585 17.6255 101.747 17.8027 100.903 17.7816C97.6488 17.7816 95.0312 15.1068 95.0312 11.2431C95.0312 7.37951 97.6488 4.82655 100.951 4.82655ZM101.495 7.07935C99.5615 7.07935 97.6935 8.53563 97.6935 11.2402C97.6935 13.9447 99.5615 15.5169 101.495 15.5169C103.428 15.5169 105.296 13.9923 105.296 11.2847C105.296 8.57724 103.455 7.07935 101.495 7.07935Z" fill="white"/>
<path d="M110.741 7.14769H109.254V5.03162H110.741V4.14002C110.741 1.25122 112.228 0 115.5 0V2.16065C113.906 2.16065 113.359 2.7075 113.359 4.14002V5.03162H115.682V7.14769H113.356V17.5676H110.738L110.741 7.14769Z" fill="white"/>
<path d="M117.39 7.14769H115.902V5.03162H117.39V4.14002C117.39 1.25122 118.877 0 122.149 0V2.16065C120.555 2.16065 120.007 2.7075 120.007 4.14002V5.03162H122.33V7.14769H120.007V17.5676H117.39V7.14769Z" fill="white"/>
<path d="M123.719 0.734131H126.316V17.5676H123.719V0.734131Z" fill="white"/>
<path d="M134.215 17.7698C130.619 17.7698 127.969 15.2228 127.969 11.2878C127.969 7.35288 130.518 4.82666 134.215 4.82666C137.785 4.82666 140.319 7.30829 140.319 10.9936C140.322 11.4194 140.292 11.8448 140.227 12.2656H130.643C130.824 14.346 132.306 15.5883 134.212 15.5883C135.807 15.5883 136.696 14.8126 137.187 13.8348H139.989C139.272 16.0193 137.291 17.7698 134.215 17.7698ZM130.664 10.1733H137.609C137.565 8.24151 136.039 7.01109 134.102 7.01109C132.35 7.00218 130.937 8.19099 130.664 10.1733Z" fill="white"/>
<path d="M105.847 28.576C105.847 26.2786 104.595 25.0958 102.706 25.0958C100.817 25.0958 99.5411 26.2846 99.5411 28.576V35.581H96.9681V28.576C96.9681 26.2786 95.7158 25.0958 93.827 25.0958C91.9382 25.0958 90.6621 26.2846 90.6621 28.576V35.581H88.0742V23.051H90.671V24.4835C91.1316 23.9552 91.703 23.5346 92.3446 23.2516C92.9861 22.9686 93.6821 22.8301 94.3832 22.8459C96.3613 22.8459 98.0241 23.687 98.8897 25.3246C99.663 23.8 101.439 22.8459 103.262 22.8459C106.198 22.8459 108.429 24.6886 108.429 28.1956V35.587H105.856L105.847 28.576Z" fill="white"/>
<path d="M115.861 22.8428C116.693 22.819 117.52 22.9895 118.275 23.3408C119.03 23.6922 119.692 24.2147 120.21 24.8667V23.0508H122.827V35.5838H120.21V33.7174C119.691 34.3833 119.023 34.9184 118.26 35.2797C117.497 35.641 116.66 35.8185 115.816 35.7978C112.559 35.7978 109.941 33.123 109.941 29.2594C109.941 25.3957 112.559 22.8428 115.861 22.8428ZM116.408 25.0956C114.472 25.0956 112.607 26.5489 112.607 29.2564C112.607 31.9639 114.472 33.5331 116.408 33.5331C118.344 33.5331 120.21 32.0085 120.21 29.3039C120.21 26.5994 118.365 25.0956 116.408 25.0956Z" fill="white"/>
<path d="M134.236 28.576C134.236 26.2786 132.983 25.0957 131.095 25.0957C129.206 25.0957 127.93 26.2845 127.93 28.576V35.581H125.336V23.051H127.93V24.4835C128.395 23.955 128.97 23.5345 129.615 23.2516C130.26 22.9688 130.959 22.8303 131.663 22.8459C134.602 22.8459 136.809 24.6886 136.809 28.1955V35.5869H134.236V28.576Z" fill="white"/>
<path d="M138.86 19.7254C138.862 19.4002 138.96 19.083 139.143 18.8135C139.325 18.5441 139.583 18.3345 139.884 18.2112C140.185 18.0878 140.516 18.0561 140.835 18.1202C141.154 18.1842 141.448 18.341 141.678 18.571C141.908 18.801 142.065 19.0938 142.129 19.4126C142.193 19.7315 142.161 20.0622 142.038 20.3631C141.914 20.664 141.705 20.9217 141.435 21.1038C141.165 21.286 140.848 21.3844 140.522 21.3868C140.303 21.3896 140.086 21.3485 139.883 21.266C139.68 21.1835 139.495 21.0612 139.34 20.9064C139.185 20.7516 139.063 20.5673 138.98 20.3645C138.898 20.1617 138.857 19.9444 138.86 19.7254V19.7254ZM139.202 23.0511H141.798V35.5841H139.202V23.0511Z" fill="white"/>
<path d="M149.349 22.8428C150.182 22.819 151.008 22.9895 151.763 23.3408C152.518 23.6922 153.18 24.2147 153.698 24.8667V23.0508H156.315V35.5838H153.698V33.7174C153.179 34.3837 152.511 34.919 151.747 35.2804C150.984 35.6417 150.146 35.8189 149.301 35.7978C146.047 35.7978 143.43 33.123 143.43 29.2594C143.43 25.3957 146.056 22.8428 149.349 22.8428ZM149.893 25.0956C147.96 25.0956 146.092 26.5489 146.092 29.2564C146.092 31.9639 147.96 33.5331 149.893 33.5331C151.827 33.5331 153.698 32.0085 153.698 29.3039C153.698 26.5994 151.863 25.0956 149.902 25.0956H149.893Z" fill="white"/>
</svg>
