<svg width="143" height="36" viewBox="0 0 143 36" fill="none" xmlns="http://www.w3.org/2000/svg">
<path d="M11.1201 18.0227L15.5526 12.2297H17.9702L13.1162 18.6268L18.5146 25.9091H15.9364L11.7042 20.1972L10.2336 21.9885V25.9109H8.09766V12.2297H10.2336V17.8623C10.2336 18.4852 10.1523 19.3101 10.0729 19.8745C10.3754 19.2516 10.778 18.4871 11.1201 18.0227Z" fill="white"/>
<path d="M25.5236 12.0881H25.7655L31.7688 25.909H29.5535L28.7672 23.978H22.5011L21.7148 25.909H19.6602L25.5236 12.0881ZM28.0017 22.1886L26.2891 17.9227C25.947 17.1185 25.6049 15.8916 25.6049 15.8916C25.6049 15.8916 25.2816 17.1185 24.9395 17.9227L23.227 22.1886H28.0017V22.1886Z" fill="white"/>
<path d="M34.0039 12.2297H36.1398V24.0385H42.4664V25.9091H34.0039V12.2297Z" fill="white"/>
<path d="M43.5312 19.0701C43.5312 14.9854 46.6747 12.0691 50.5628 12.0691C53.0201 12.0691 54.8347 12.9751 56.0426 14.7853L54.4113 15.9519C53.6458 14.7646 52.3566 13.9793 50.5628 13.9793C47.7218 13.9793 45.7069 16.1519 45.7069 19.0701C45.7069 21.9865 47.7218 24.1798 50.5628 24.1798C52.4568 24.1798 53.7252 23.3342 54.6117 22.028L56.2429 23.1756C55.054 24.9858 53.1203 26.092 50.5609 26.092C46.6747 26.0901 43.5312 23.153 43.5312 19.0701Z" fill="white"/>
<path d="M58.5781 21.1014V12.2297H60.7141V20.9806C60.7141 23.1928 61.8028 24.18 63.797 24.18C65.7912 24.18 66.8988 23.1947 66.8988 20.9806V12.2297H69.014V21.1014C69.014 24.4216 66.7571 26.0903 63.7951 26.0903C60.8161 26.0903 58.5781 24.4216 58.5781 21.1014Z" fill="white"/>
<path d="M72.2344 12.2297H74.3703V24.0385H80.6969V25.9091H72.2344V12.2297Z" fill="white"/>
<path d="M87.9923 12.0881H88.2343L94.2376 25.909H92.0223L91.2359 23.978H84.9699L84.1836 25.909H82.1289L87.9923 12.0881ZM90.4704 22.1886L88.7579 17.9227C88.4157 17.1185 88.0736 15.8916 88.0736 15.8916C88.0736 15.8916 87.7504 17.1185 87.4083 17.9227L85.6957 22.1886H90.4704V22.1886Z" fill="white"/>
<path d="M97.8235 14.1003H93.7539V12.2297H104.008V14.1003H99.9387V25.9091H97.8235V14.1003Z" fill="white"/>
<path d="M104.875 19.0704C104.875 14.9857 108.018 12.0486 111.946 12.0486C115.855 12.0486 118.997 14.9857 118.997 19.0704C118.997 23.1551 115.853 26.0922 111.946 26.0922C108.017 26.0903 104.875 23.1532 104.875 19.0704ZM116.821 19.0704C116.821 16.1522 114.806 13.9607 111.946 13.9607C109.084 13.9607 107.051 16.1541 107.051 19.0704C107.051 21.9867 109.086 24.1801 111.946 24.1801C114.806 24.1801 116.821 21.9867 116.821 19.0704Z" fill="white"/>
<path d="M131.161 25.9091H128.703L126.246 22.3075C125.864 22.3472 125.481 22.3887 125.097 22.3887H123.808V25.9091H121.672V12.2297H125.097C128.885 12.2297 131 14.2004 131 17.3394C131 19.4516 130.053 20.9013 128.261 21.6846L131.161 25.9091ZM125.016 20.5578C127.736 20.5578 128.823 19.3705 128.823 17.3394C128.823 15.2876 127.694 14.1003 125.016 14.1003H123.806V20.5578H125.016Z" fill="white"/>
<path d="M132.633 23.2549L134.385 22.2885C135.03 23.355 135.856 24.2006 137.528 24.2006C138.92 24.2006 139.906 23.4569 139.906 22.33C139.906 21.1427 139.101 20.6198 137.61 19.9554L136.702 19.5534C134.708 18.6681 133.499 17.662 133.499 15.5498C133.499 13.5188 135.069 12.0691 137.347 12.0691C139.16 12.0691 140.388 12.7524 141.214 14.2209L139.542 15.2478C139.018 14.3417 138.413 13.9189 137.345 13.9189C136.256 13.9189 135.572 14.5834 135.572 15.5083C135.572 16.5332 136.156 16.9976 137.547 17.5997L138.434 18.0018C140.77 19.0286 142.02 20.114 142.02 22.3073C142.02 24.7008 140.146 26.0901 137.568 26.0901C134.969 26.0901 133.398 24.8027 132.633 23.2549Z" fill="white"/>
<path d="M45.1916 31.9493C45.1821 31.4416 45.598 31.0452 46.097 31.0452C46.5979 31.0452 47.0024 31.4416 47.0024 31.9418C47.0024 32.4495 46.6054 32.8459 46.097 32.8459C45.598 32.8459 45.1916 32.4571 45.1916 31.9493Z" fill="white"/>
<path d="M50.5544 29.0272H48.7852V28.3892H53.091V29.0272H51.3143V34.1991H50.5544V29.0272Z" fill="white"/>
<path d="M55.4706 34.1992L55.4102 33.6726H55.3837C55.1512 34.001 54.7013 34.2936 54.1059 34.2936C53.261 34.2936 52.8281 33.699 52.8281 33.095C52.8281 32.087 53.726 31.5358 55.3402 31.5434V31.4566C55.3402 31.1111 55.2457 30.492 54.3913 30.492C54.0038 30.492 53.5974 30.6128 53.3045 30.8016L53.1324 30.3014C53.4784 30.0767 53.9774 29.9314 54.5047 29.9314C55.7825 29.9314 56.0925 30.8016 56.0925 31.6378V33.1969C56.0925 33.5593 56.1095 33.9123 56.1625 34.1954H55.4706V34.1992ZM55.3591 32.07C54.5312 32.053 53.5899 32.1984 53.5899 33.01C53.5899 33.5008 53.9188 33.7349 54.3063 33.7349C54.8507 33.7349 55.1947 33.3895 55.3156 33.0365C55.3421 32.9591 55.3591 32.8723 55.3591 32.7949V32.07Z" fill="white"/>
<path d="M57.6708 30.0276L58.2662 30.9242C58.4212 31.1564 58.5516 31.3715 58.6896 31.6056H58.7161C58.8541 31.3564 58.992 31.1413 59.13 30.9166L59.7179 30.0295H60.5382L59.1149 32.0454L60.5817 34.1991H59.7179L59.1055 33.2591C58.941 33.0175 58.803 32.7853 58.6575 32.5343H58.6405C58.5025 32.7835 58.355 33.0081 58.2 33.2591L57.5952 34.1991H56.7578L58.2416 32.07L56.8259 30.0276H57.6708" fill="white"/>
<path d="M62.8244 31.9493C62.8149 31.4416 63.2308 31.0452 63.7298 31.0452C64.2288 31.0452 64.6352 31.4416 64.6352 31.9418C64.6352 32.4495 64.2383 32.8459 63.7298 32.8459C63.2289 32.8459 62.8244 32.4571 62.8244 31.9493Z" fill="white"/>
<path d="M68.3739 32.372L67.7691 34.1992H66.9922L68.9675 28.3911H69.8729L71.8576 34.1992H71.0542L70.4324 32.372H68.3739ZM70.2793 31.785L69.7103 30.1126C69.5818 29.7332 69.4948 29.3878 69.4079 29.0518H69.3909C69.3039 29.3972 69.2094 29.7502 69.0979 30.1032L68.5289 31.7831H70.2793V31.785Z" fill="white"/>
<path d="M75.5608 34.0426C75.3623 34.1465 74.9219 34.2842 74.3605 34.2842C73.1016 34.2842 72.2812 33.4311 72.2812 32.1551C72.2812 30.8715 73.1621 29.9409 74.5249 29.9409C74.9748 29.9409 75.3717 30.0523 75.5778 30.1561L75.4058 30.7413C75.2243 30.6374 74.9408 30.5431 74.5249 30.5431C73.5666 30.5431 73.0487 31.249 73.0487 32.1211C73.0487 33.0856 73.6706 33.6802 74.4985 33.6802C74.9294 33.6802 75.2149 33.5689 75.4303 33.4726L75.5608 34.0426Z" fill="white"/>
<path d="M79.3772 34.0426C79.1787 34.1465 78.7383 34.2842 78.1769 34.2842C76.9161 34.2842 76.0977 33.4311 76.0977 32.1551C76.0977 30.8715 76.9785 29.9409 78.3414 29.9409C78.7912 29.9409 79.1882 30.0523 79.3942 30.1561L79.2222 30.7413C79.0407 30.6374 78.7553 30.5431 78.3414 30.5431C77.383 30.5431 76.8651 31.249 76.8651 32.1211C76.8651 33.0856 77.487 33.6802 78.3149 33.6802C78.7459 33.6802 79.0313 33.5689 79.2468 33.4726L79.3772 34.0426Z" fill="white"/>
<path d="M83.995 32.0776C83.995 33.6197 82.9252 34.2917 81.9158 34.2917C80.7855 34.2917 79.9141 33.465 79.9141 32.1455C79.9141 30.7487 80.8289 29.9314 81.9857 29.9314C83.1841 29.9333 83.995 30.8035 83.995 32.0776ZM80.6815 32.121C80.6815 33.0346 81.2089 33.7236 81.9498 33.7236C82.6738 33.7236 83.2181 33.0421 83.2181 32.104C83.2181 31.398 82.8647 30.5014 81.9668 30.5014C81.069 30.5014 80.6815 31.3282 80.6815 32.121Z" fill="white"/>
<path d="M88.4493 33.0609C88.4493 33.4913 88.4587 33.8707 88.4833 34.1991H87.8104L87.7669 33.5177H87.7499C87.5514 33.8537 87.111 34.2935 86.37 34.2935C85.7141 34.2935 84.9297 33.9311 84.9297 32.4663V30.0276H85.6896V32.338C85.6896 33.1308 85.9315 33.665 86.6214 33.665C87.1299 33.665 87.4852 33.312 87.6232 32.976C87.6667 32.8646 87.6913 32.7268 87.6913 32.589V30.0295H88.4511V33.0609" fill="white"/>
<path d="M89.7098 31.1565C89.7098 30.7261 89.7004 30.3732 89.6758 30.0277H90.3487L90.3922 30.7167H90.4092C90.6171 30.3203 91.0991 29.9333 91.789 29.9333C92.3674 29.9333 93.2653 30.2788 93.2653 31.7077V34.1974H92.5054V31.7926C92.5054 31.1206 92.2559 30.56 91.5395 30.56C91.0386 30.56 90.6511 30.913 90.5207 31.3358C90.4867 31.4302 90.4697 31.5604 90.4697 31.6888V34.1974H89.7098V31.1565" fill="white"/>
<path d="M95.3815 28.8291V30.0277H96.4684V30.6053H95.3815V32.8553C95.3815 33.3725 95.5289 33.6651 95.9504 33.6651C96.1489 33.6651 96.2963 33.6387 96.3909 33.6141L96.4249 34.1823C96.2774 34.2427 96.0449 34.2861 95.752 34.2861C95.3985 34.2861 95.1131 34.1747 94.9316 33.9671C94.7161 33.7425 94.6386 33.3725 94.6386 32.8817V30.6072H93.9922V30.0296H94.6386V29.0292L95.3815 28.8291Z" fill="white"/>
<path d="M98.1672 28.8554C98.1766 29.114 97.9858 29.3197 97.6836 29.3197C97.4173 29.3197 97.2266 29.1121 97.2266 28.8554C97.2266 28.5892 97.4249 28.3816 97.7006 28.3816C97.9858 28.3816 98.1672 28.5892 98.1672 28.8554ZM97.321 30.0276H98.0803V34.1991H97.321V30.0276Z" fill="white"/>
<path d="M99.3426 31.1565C99.3426 30.7261 99.3332 30.3732 99.3086 30.0277H99.9815L100.025 30.7167H100.042C100.25 30.3203 100.732 29.9333 101.422 29.9333C102 29.9333 102.898 30.2788 102.898 31.7077V34.1974H102.138V31.7926C102.138 31.1206 101.887 30.56 101.172 30.56C100.671 30.56 100.284 30.913 100.154 31.3358C100.119 31.4302 100.102 31.5604 100.102 31.6888V34.1974H99.3426V31.1565Z" fill="white"/>
<path d="M107.731 30.0278C107.714 30.3298 107.697 30.6658 107.697 31.1736V33.5953C107.697 34.5523 107.508 35.1375 107.102 35.4999C106.696 35.8793 106.11 36.0001 105.582 36.0001C105.081 36.0001 104.529 35.8793 104.193 35.6547L104.382 35.0771C104.658 35.2489 105.089 35.4055 105.607 35.4055C106.384 35.4055 106.953 34.9997 106.953 33.9483V33.484H106.936C106.703 33.8709 106.253 34.1824 105.607 34.1824C104.571 34.1824 103.828 33.3028 103.828 32.1494C103.828 30.7356 104.752 29.9353 105.709 29.9353C106.435 29.9353 106.83 30.3147 107.011 30.6601H107.028L107.062 30.0316H107.731V30.0278ZM106.945 31.6738C106.945 31.5454 106.936 31.4322 106.902 31.3283C106.764 30.8885 106.391 30.528 105.839 30.528C105.115 30.528 104.597 31.1396 104.597 32.1041C104.597 32.9234 105.011 33.6029 105.832 33.6029C106.297 33.6029 106.72 33.3103 106.885 32.8271C106.928 32.6987 106.945 32.5515 106.945 32.4213V31.6738Z" fill="white"/>
<path d="M110.465 31.9493C110.456 31.4416 110.871 31.0452 111.37 31.0452C111.871 31.0452 112.276 31.4416 112.276 31.9418C112.276 32.4495 111.879 32.8459 111.37 32.8459C110.871 32.8459 110.465 32.4571 110.465 31.9493Z" fill="white"/>
<path d="M115.078 28.3892H118.21V29.0196H115.829V30.9487H118.029V31.5697H115.829V34.1991H115.078V28.3892Z" fill="white"/>
<path d="M119.874 28.8554C119.884 29.114 119.693 29.3197 119.391 29.3197C119.124 29.3197 118.934 29.1121 118.934 28.8554C118.934 28.5892 119.132 28.3816 119.408 28.3816C119.693 28.3816 119.874 28.5892 119.874 28.8554ZM119.03 30.0276H119.789V34.1991H119.03V30.0276Z" fill="white"/>
<path d="M121.046 31.1565C121.046 30.7261 121.036 30.3732 121.012 30.0277H121.685L121.728 30.7167H121.745C121.953 30.3203 122.435 29.9333 123.125 29.9333C123.703 29.9333 124.601 30.2788 124.601 31.7077V34.1974H123.841V31.7926C123.841 31.1206 123.592 30.56 122.875 30.56C122.375 30.56 121.987 30.913 121.857 31.3358C121.823 31.4302 121.806 31.5604 121.806 31.6888V34.1974H121.046V31.1565Z" fill="white"/>
<path d="M128.15 34.1992L128.09 33.6726H128.063C127.831 34.001 127.381 34.2936 126.786 34.2936C125.941 34.2936 125.508 33.699 125.508 33.095C125.508 32.087 126.406 31.5358 128.02 31.5434V31.4566C128.02 31.1111 127.925 30.492 127.071 30.492C126.684 30.492 126.277 30.6128 125.984 30.8016L125.812 30.3014C126.158 30.0767 126.657 29.9314 127.184 29.9314C128.462 29.9314 128.772 30.8016 128.772 31.6378V33.1969C128.772 33.5593 128.789 33.9123 128.84 34.1954H128.15V34.1992ZM128.039 32.07C127.211 32.053 126.27 32.1984 126.27 33.01C126.27 33.5008 126.597 33.7349 126.986 33.7349C127.53 33.7349 127.874 33.3895 127.995 33.0365C128.022 32.9591 128.039 32.8723 128.039 32.7949V32.07Z" fill="white"/>
<path d="M129.999 31.1565C129.999 30.7261 129.989 30.3732 129.965 30.0277H130.638L130.681 30.7167H130.698C130.906 30.3203 131.388 29.9333 132.078 29.9333C132.657 29.9333 133.554 30.2788 133.554 31.7077V34.1974H132.794V31.7926C132.794 31.1206 132.545 30.56 131.829 30.56C131.328 30.56 130.94 30.913 130.81 31.3358C130.776 31.4302 130.759 31.5604 130.759 31.6888V34.1974H129.999V31.1565Z" fill="white"/>
<path d="M137.768 34.0426C137.569 34.1465 137.129 34.2842 136.568 34.2842C135.309 34.2842 134.488 33.4311 134.488 32.1551C134.488 30.8715 135.369 29.9409 136.732 29.9409C137.18 29.9409 137.577 30.0523 137.785 30.1561L137.613 30.7413C137.431 30.6374 137.146 30.5431 136.732 30.5431C135.774 30.5431 135.256 31.249 135.256 32.1211C135.256 33.0856 135.878 33.6802 136.705 33.6802C137.136 33.6802 137.422 33.5689 137.637 33.4726L137.768 34.0426Z" fill="white"/>
<path d="M139.029 32.2513C139.046 33.2763 139.702 33.6991 140.461 33.6991C141.006 33.6991 141.333 33.6047 141.618 33.4839L141.747 34.0275C141.478 34.1483 141.021 34.2861 140.357 34.2861C139.072 34.2861 138.305 33.4424 138.305 32.1833C138.305 30.9243 139.048 29.9333 140.263 29.9333C141.626 29.9333 141.989 31.132 141.989 31.8983C141.989 32.0531 141.972 32.1739 141.962 32.2513H139.029ZM141.253 31.7077C141.263 31.2245 141.055 30.4751 140.201 30.4751C139.433 30.4751 139.097 31.181 139.036 31.7077H141.253Z" fill="white"/>
<path d="M1.09895 24.363V25.9334H0.375V21.9771H1.09895V23.5456H5.66759V24.363H1.09895Z" fill="white"/>
<path d="M0.375 21.0901V20.2652H3.22355V17.7226H0.375V16.8997H5.66759V17.7226H3.95506V20.2652H5.66759V21.0901H0.375Z" fill="white"/>
<path d="M0.375 15.6235V12.2655H1.09895V14.8005H3.15361V12.5524H3.86244V14.8005H4.94364V12.156H5.66759V15.6235H0.375Z" fill="white"/>
<path d="M103.879 4.8643C103.879 7.55034 101.698 9.72861 99.0078 9.72861C96.318 9.72861 94.1367 7.55034 94.1367 4.8643C94.1348 2.17827 96.3161 0 99.0059 0C101.696 0 103.879 2.17827 103.879 4.8643Z" fill="#BCBCBC"/>
<path d="M99.7497 9.65293C98.1903 8.09567 97.1016 7.20473 97.1016 7.20473L101.364 2.8916C101.364 2.8916 103.715 5.64936 103.783 5.71731C103.695 6.90461 102.407 9.26031 99.7497 9.65293Z" fill="#8B8B8B"/>
<path d="M102.083 4.86422C102.083 6.53851 100.724 7.89568 99.0474 7.89568C97.3708 7.89568 96.0117 6.53851 96.0117 4.86422C96.0117 3.18994 97.3708 1.83276 99.0474 1.83276C100.724 1.83276 102.083 3.19182 102.083 4.86422Z" fill="white"/>
<path d="M101.168 4.86799C101.168 4.95482 101.164 5.02655 101.154 5.08506C101.145 5.14358 101.132 5.19077 101.113 5.22663C101.094 5.2625 101.073 5.28704 101.049 5.30214C101.024 5.31724 100.998 5.32479 100.969 5.32479H99.5307V6.89148C99.5307 6.92168 99.5232 6.95 99.5081 6.97265C99.4929 6.9953 99.4665 7.01606 99.4287 7.03305C99.3909 7.05004 99.3417 7.06325 99.2812 7.07269C99.2189 7.08213 99.1432 7.0859 99.0506 7.0859C98.958 7.0859 98.8805 7.08213 98.82 7.07269C98.7576 7.06325 98.7085 7.05004 98.6726 7.03305C98.6348 7.01606 98.6083 6.9953 98.5913 6.97265C98.5743 6.95 98.5667 6.92357 98.5667 6.89148V5.32479H97.1321C97.1037 5.32479 97.0791 5.31724 97.0565 5.30214C97.0338 5.28704 97.013 5.26061 96.9941 5.22663C96.9752 5.19077 96.9619 5.14358 96.9506 5.08506C96.9393 5.02655 96.9336 4.95482 96.9336 4.86799C96.9336 4.78494 96.9374 4.71321 96.9468 4.65281C96.9563 4.59241 96.9695 4.54522 96.9865 4.50935C97.0035 4.47349 97.0224 4.44895 97.0451 4.43385C97.0659 4.41875 97.0905 4.4112 97.1188 4.4112H98.5667V2.85016C98.5667 2.81996 98.5743 2.79165 98.5913 2.76522C98.6083 2.7388 98.6348 2.71803 98.6726 2.70105C98.7104 2.68406 98.7595 2.67084 98.82 2.66141C98.8824 2.65197 98.958 2.64819 99.0506 2.64819C99.1432 2.64819 99.2207 2.65197 99.2812 2.66141C99.3436 2.67084 99.3928 2.68406 99.4287 2.70105C99.4665 2.71803 99.4911 2.74068 99.5081 2.76522C99.5232 2.79165 99.5307 2.81996 99.5307 2.85016V4.4112H100.984C101.009 4.4112 101.033 4.41875 101.056 4.43385C101.079 4.44895 101.1 4.47537 101.117 4.50935C101.134 4.54522 101.147 4.59241 101.156 4.65281C101.164 4.71321 101.168 4.78494 101.168 4.86799Z" fill="#8B8B8B"/>
<path d="M116.59 4.8643C116.59 7.55034 114.408 9.72861 111.719 9.72861C109.029 9.72861 106.848 7.55034 106.848 4.8643C106.846 2.17827 109.027 0 111.717 0C114.408 0 116.59 2.17827 116.59 4.8643Z" fill="#BCBCBC"/>
<path d="M112.27 9.66803C112.27 9.68313 110.109 7.54072 110.109 7.54072L113.425 2.3291C113.425 2.3291 116.493 5.36245 116.559 5.4304C116.364 7.2859 114.873 9.41698 112.27 9.66803Z" fill="#8B8B8B"/>
<path d="M114.402 6.44413L112.786 4.84346L114.364 3.26167L113.307 2.21028L111.729 3.79397L110.113 2.19141L109.062 3.24845L110.676 4.84912L109.043 6.48755L110.1 7.53704L111.735 5.89673L113.351 7.49929L114.402 6.44413Z" fill="white"/>
<path d="M129.309 4.8643C129.309 7.55034 127.127 9.72861 124.437 9.72861C121.748 9.72861 119.566 7.55034 119.566 4.8643C119.565 2.17827 121.746 0 124.436 0C127.125 0 129.309 2.17827 129.309 4.8643Z" fill="#BCBCBC"/>
<path d="M125.087 9.67568C123.527 8.11843 122.355 7.03306 122.355 7.03306L126.631 2.70483C126.631 2.70483 129.166 5.62115 129.234 5.6891C129.177 7.00475 127.533 9.41708 125.087 9.67568Z" fill="#8B8B8B"/>
<path d="M127.513 4.86422C127.513 6.53851 126.154 7.89568 124.477 7.89568C122.8 7.89568 121.441 6.53851 121.441 4.86422C121.441 3.18994 122.8 1.83276 124.477 1.83276C126.154 1.83465 127.513 3.19182 127.513 4.86422Z" fill="white"/>
<path d="M126.568 3.94306C126.568 4.11294 126.549 4.23375 126.513 4.30547C126.476 4.3772 126.424 4.41118 126.356 4.41118H122.665C122.597 4.41118 122.544 4.37531 122.508 4.30547C122.47 4.23375 122.453 4.11483 122.453 3.94306C122.453 3.77884 122.47 3.66181 122.504 3.59008C122.538 3.51835 122.591 3.48438 122.667 3.48438H126.358C126.432 3.48438 126.487 3.52024 126.521 3.59008C126.555 3.65992 126.568 3.77695 126.568 3.94306ZM126.568 5.89482C126.568 6.06848 126.549 6.18928 126.513 6.25724C126.477 6.32519 126.424 6.35917 126.356 6.35917H122.665C122.597 6.35917 122.544 6.32519 122.508 6.25724C122.472 6.18928 122.453 6.06848 122.453 5.89482C122.453 5.7306 122.47 5.61168 122.504 5.53995C122.538 5.46823 122.591 5.43236 122.667 5.43236H126.358C126.432 5.43236 126.487 5.46823 126.521 5.53995C126.555 5.61168 126.568 5.7306 126.568 5.89482Z" fill="#8B8B8B"/>
<path d="M142.016 4.86431C142.016 7.55034 139.834 9.72861 137.145 9.72861C134.455 9.72861 132.273 7.55034 132.273 4.86431C132.273 2.17827 134.455 0 137.145 0C139.836 0 142.016 2.17827 142.016 4.86431Z" fill="#BCBCBC"/>
<path d="M137.488 9.67756C137.486 9.69266 134.941 6.73104 134.941 6.73104L135.52 6.15344L137.14 6.9047L137.726 4.95293L136.07 2.94643L138.285 3.08611L138.501 2.36694C138.501 2.36694 141.765 5.95902 141.826 6.03452C141.482 7.71258 139.571 9.67756 137.488 9.67756Z" fill="#8B8B8B"/>
<path d="M136.394 2.08209V1.88955C136.394 1.78007 136.411 1.70835 136.447 1.67248C136.483 1.63662 136.555 1.61963 136.665 1.61963H137.009C137.114 1.61963 137.186 1.6385 137.222 1.67248C137.258 1.70835 137.275 1.78007 137.275 1.88955V2.08586C137.275 2.17269 137.288 2.22554 137.313 2.24253C137.337 2.25952 137.428 2.28217 137.583 2.31048C137.621 2.31803 137.698 2.34069 137.812 2.37655C137.861 2.38976 137.899 2.39731 137.927 2.39731C137.956 2.39731 137.991 2.38976 138.039 2.37277C138.154 2.33125 138.235 2.31048 138.284 2.31048C138.43 2.31048 138.593 2.43129 138.772 2.67479C138.963 2.9315 139.059 3.18066 139.059 3.42416C139.059 3.56573 139.02 3.68087 138.94 3.7677C138.861 3.85453 138.759 3.89794 138.632 3.89794C138.54 3.89794 138.464 3.87718 138.405 3.83754C138.347 3.7979 138.192 3.66388 137.94 3.4336C137.695 3.20709 137.428 3.09383 137.141 3.09383C137.018 3.09383 136.918 3.12781 136.84 3.19387C136.763 3.25994 136.723 3.34677 136.723 3.45436C136.723 3.60159 136.804 3.71862 136.969 3.80734C137.031 3.8432 137.283 3.92626 137.723 4.0565C138.163 4.19052 138.496 4.35851 138.723 4.56048C139.012 4.82286 139.158 5.16262 139.158 5.58356C139.158 6.01204 139.003 6.37068 138.695 6.65948C138.523 6.8237 138.322 6.9596 138.092 7.06908C137.863 7.17856 137.647 7.24085 137.445 7.25784C137.371 7.2635 137.324 7.27672 137.305 7.29937C137.286 7.32202 137.277 7.3711 137.277 7.45038V7.63913C137.277 7.74861 137.26 7.82034 137.224 7.85621C137.188 7.89207 137.118 7.90906 137.01 7.90906H136.666C136.557 7.90906 136.485 7.89207 136.449 7.85621C136.413 7.82034 136.396 7.74861 136.396 7.63913V7.45038C136.396 7.37676 136.389 7.32768 136.373 7.30503C136.358 7.28238 136.326 7.26728 136.277 7.26162C136.039 7.23142 135.804 7.18045 135.57 7.10872C135.336 7.03699 135.179 6.96715 135.098 6.89731C134.994 6.81237 134.899 6.64438 134.812 6.38955C134.725 6.13662 134.684 5.90067 134.684 5.68171C134.684 5.56657 134.71 5.47596 134.763 5.4099C134.816 5.34383 134.886 5.30986 134.975 5.30986C135.079 5.30986 135.185 5.37215 135.294 5.49861C135.324 5.53448 135.417 5.67227 135.572 5.91199C135.676 6.07244 135.821 6.19891 136.009 6.2914C136.196 6.382 136.4 6.42919 136.621 6.42919C136.799 6.42919 136.944 6.3971 137.058 6.33104C137.171 6.26497 137.228 6.18192 137.228 6.0781C137.228 5.95163 137.15 5.84593 136.993 5.7591C136.941 5.73267 136.708 5.64396 136.292 5.49295C135.3 5.14186 134.805 4.59257 134.805 3.84887C134.805 3.43171 134.975 3.06552 135.317 2.75218C135.581 2.50679 135.88 2.35201 136.215 2.28595C136.302 2.26896 136.355 2.25197 136.37 2.23309C136.385 2.21044 136.394 2.16137 136.394 2.08209Z" fill="white"/>
</svg>
