<svg width="24" height="27" viewBox="0 0 24 27" fill="none" xmlns="http://www.w3.org/2000/svg">
    <path d="M21.862 16.736C23.1847 17.5213 23.846 18.41 23.846 19.402C23.846 19.774 23.7427 20.1253 23.536 20.456C23.164 21.1173 22.5853 21.448 21.8 21.448C21.18 21.448 20.436 21.2 19.568 20.704C18.948 20.332 18.266 19.8153 17.522 19.154C16.778 18.4927 16.0133 17.7487 15.228 16.922L12.438 14.194C12.686 15.2687 12.996 16.426 13.368 17.666C14.1533 20.518 14.5667 22.502 14.608 23.618C14.5667 24.7753 14.3187 25.6227 13.864 26.16C13.4093 26.6973 12.8513 26.966 12.19 26.966C11.57 26.966 11.0533 26.6973 10.64 26.16C10.2267 25.6227 10.02 24.7753 10.02 23.618C10.02 22.9153 10.1233 22.0473 10.33 21.014C10.578 19.9807 10.8673 18.8647 11.198 17.666C11.4873 16.7567 11.7973 15.5993 12.128 14.194C12.128 14.194 11.3013 15.0207 9.648 16.674C8.78 17.542 7.93267 18.348 7.106 19.092C6.32067 19.836 5.618 20.394 4.998 20.766C4.21267 21.2207 3.48933 21.448 2.828 21.448C1.91867 21.448 1.278 21.0967 0.906 20.394C0.740667 20.1047 0.658 19.7947 0.658 19.464C0.658 18.5547 1.34 17.666 2.704 16.798C3.324 16.426 4.04733 16.116 4.874 15.868C5.70067 15.5787 6.83733 15.248 8.284 14.876C9.56533 14.5867 10.764 14.2767 11.88 13.946C10.02 13.4087 8.80067 13.078 8.222 12.954C7.106 12.6233 6.052 12.3133 5.06 12.024C4.068 11.6933 3.262 11.3627 2.642 11.032C1.31933 10.2467 0.658 9.358 0.658 8.366C0.658 7.994 0.761334 7.64266 0.968 7.312C1.34 6.65066 1.91867 6.32 2.704 6.32C3.324 6.32 4.068 6.568 4.936 7.064C5.556 7.436 6.25867 7.97333 7.044 8.676C7.82933 9.37866 8.63533 10.164 9.462 11.032C10.206 11.8173 11.074 12.6853 12.066 13.636L11.136 10.164C10.7227 8.676 10.4127 7.498 10.206 6.63C10.0407 5.72067 9.958 4.894 9.958 4.15C9.958 2.99267 10.1853 2.14533 10.64 1.608C11.0947 1.07066 11.632 0.801998 12.252 0.801998C12.872 0.801998 13.3887 1.07066 13.802 1.608C14.2567 2.14533 14.484 2.99267 14.484 4.15C14.484 4.85266 14.36 5.72066 14.112 6.754C13.9053 7.78733 13.6367 8.90333 13.306 10.102C13.0167 11.0113 12.7067 12.1687 12.376 13.574C12.376 13.574 13.2027 12.7473 14.856 11.094C15.724 10.226 16.5507 9.42 17.336 8.676C18.1627 7.932 18.886 7.374 19.506 7.002C20.2913 6.54733 21.0147 6.32 21.676 6.32C22.6267 6.32 23.2673 6.67133 23.598 7.374C23.7633 7.66333 23.846 7.97333 23.846 8.304C23.846 9.296 23.164 10.1847 21.8 10.97C21.18 11.342 20.4567 11.6727 19.63 11.962C18.8033 12.21 17.6667 12.52 16.22 12.892C14.9387 13.1813 13.74 13.4913 12.624 13.822C14.5253 14.3593 15.7447 14.69 16.282 14.814C17.398 15.1447 18.452 15.4753 19.444 15.806C20.436 16.0953 21.242 16.4053 21.862 16.736Z" fill="white"></path>
</svg>