<svg width="76" height="120" viewBox="0 0 76 120" fill="none" xmlns="http://www.w3.org/2000/svg">
<g clip-path="url(#clip0_358_13)">
<path d="M15.9802 121C15.691 120.995 15.4084 120.913 15.1613 120.763C14.9142 120.612 14.7116 120.399 14.5742 120.145C14.4368 119.89 14.3695 119.604 14.3794 119.315C14.3892 119.026 14.4758 118.744 14.6302 118.5L33.6602 89.0999L1.75018 86.5799C1.42225 86.5519 1.11049 86.4253 0.855897 86.2167C0.601306 86.0081 0.415816 85.7274 0.323829 85.4114C0.231843 85.0954 0.237669 84.7589 0.340542 84.4463C0.443415 84.1337 0.638516 83.8595 0.900176 83.6599L29.7102 61.8999L0.460176 31.8099C0.222736 31.5652 0.0680132 31.2522 0.0177847 30.9149C-0.0324438 30.5777 0.0243513 30.2332 0.180176 29.9299C0.336359 29.6253 0.584986 29.3781 0.890395 29.2236C1.1958 29.0691 1.5423 29.0153 1.88018 29.0699L26.4302 33.1199L14.6602 13.0999C14.4825 12.7961 14.4079 12.443 14.4476 12.0933C14.4872 11.7436 14.639 11.4162 14.8802 11.1599C15.1223 10.9057 15.4405 10.7371 15.7868 10.6794C16.133 10.6217 16.4887 10.678 16.8002 10.8399L51.3502 28.9299L55.2702 2.38988C55.1159 2.17396 55.017 1.92345 54.9823 1.66037C54.9475 1.39729 54.9779 1.1297 55.0708 0.881122C55.1637 0.63254 55.3162 0.410581 55.5149 0.234755C55.7137 0.0589298 55.9526 -0.0653779 56.2107 -0.12724C56.4687 -0.189103 56.738 -0.186626 56.9949 -0.120026C57.2518 -0.0534274 57.4883 0.0752541 57.6838 0.254706C57.8793 0.434158 58.0277 0.658886 58.116 0.909134C58.2043 1.15938 58.2298 1.42749 58.1902 1.68988L75.7002 26.3199C75.8236 26.4932 75.9117 26.6892 75.9594 26.8966C76.0071 27.104 76.0135 27.3187 75.9782 27.5286C75.9429 27.7384 75.8667 27.9393 75.7538 28.1197C75.6409 28.3001 75.4935 28.4564 75.3202 28.5799C75.1468 28.7033 74.9509 28.7914 74.7435 28.8391C74.5361 28.8868 74.3213 28.8932 74.1115 28.8579C73.9016 28.8227 73.7008 28.7464 73.5204 28.6335C73.34 28.5206 73.1836 28.3732 73.0602 28.1999L57.8802 6.84988L54.2202 31.6599C54.1824 31.9153 54.0841 32.1579 53.9335 32.3676C53.7829 32.5773 53.5843 32.748 53.3544 32.8654C53.1244 32.9828 52.8698 33.0436 52.6116 33.0426C52.3534 33.0417 52.0992 32.979 51.8702 32.8599L20.3302 16.3499L30.9902 34.4599C31.3102 35.0099 31.2902 35.6899 30.9302 36.2099C30.7557 36.4636 30.5125 36.6623 30.2291 36.7827C29.9457 36.9031 29.6339 36.9403 29.3302 36.8899L6.22018 33.0899L33.3202 60.9699C33.4799 61.1358 33.6027 61.3336 33.6804 61.5504C33.7581 61.7672 33.789 61.998 33.7711 62.2276C33.7531 62.4572 33.6867 62.6803 33.5763 62.8824C33.4658 63.0845 33.3138 63.2608 33.1302 63.3999L6.27018 83.6699L36.6302 86.0799C36.909 86.1047 37.1768 86.2009 37.4077 86.3592C37.6386 86.5175 37.8248 86.7327 37.9484 86.9839C38.072 87.2351 38.1288 87.5139 38.1133 87.7934C38.0979 88.073 38.0107 88.3438 37.8602 88.5799L17.3502 120.26C17.0402 120.74 16.5202 121 15.9802 121Z" fill="#518F5A"/>
</g>
<defs>
<clipPath id="clip0_358_13">
<rect width="76" height="120" fill="white"/>
</clipPath>
</defs>
</svg>
