<svg width="112" height="96" viewBox="0 0 112 96" fill="none" xmlns="http://www.w3.org/2000/svg">
<g clip-path="url(#clip0_655_6)">
<path d="M4.9846 52.6579C4.88963 52.4496 4.85179 52.2197 4.87498 51.992C4.89817 51.7642 4.98153 51.5467 5.11653 51.3618C5.25153 51.1769 5.4333 51.0312 5.64318 50.9397C5.85306 50.8482 6.0835 50.8142 6.31086 50.8412L33.8044 54.4189L24.7294 30.7588C24.6377 30.515 24.6219 30.249 24.6841 29.996C24.7464 29.743 24.8838 29.5148 25.0782 29.3414C25.2727 29.168 25.5151 29.0575 25.7735 29.0244C26.032 28.9914 26.2944 29.0373 26.5262 29.1563L51.8938 42.3261L63.4255 11.1703C63.5194 10.9172 63.6903 10.7 63.9142 10.5492C64.138 10.3983 64.4036 10.3215 64.6734 10.3295C64.9442 10.3373 65.2057 10.4307 65.4201 10.5962C65.6346 10.7618 65.7912 10.9911 65.8673 11.2511L71.3405 30.1736L81.6343 14.9401C81.7908 14.7096 82.0177 14.536 82.2811 14.4451C82.5445 14.3543 82.8302 14.3511 83.0955 14.4361C83.3597 14.5225 83.5886 14.6924 83.7478 14.9201C83.9071 15.1479 83.9881 15.4212 83.9785 15.699L82.8278 46.552L103.128 40.3077C103.23 40.1238 103.375 39.9678 103.551 39.8533C103.727 39.7388 103.929 39.6693 104.138 39.651C104.347 39.6326 104.558 39.6659 104.751 39.748C104.945 39.8301 105.115 39.9585 105.247 40.1218C105.379 40.2851 105.469 40.4784 105.509 40.6846C105.549 40.8909 105.538 41.1038 105.476 41.3046C105.415 41.5055 105.305 41.6881 105.156 41.8365C105.007 41.9848 104.824 42.0944 104.623 42.1555L92.9917 63.0617C92.9099 63.209 92.7999 63.3387 92.668 63.4435C92.5361 63.5483 92.3848 63.626 92.2228 63.6723C92.0609 63.7186 91.8913 63.7326 91.724 63.7134C91.5566 63.6942 91.3946 63.6422 91.2474 63.5604C91.1001 63.4786 90.9703 63.3686 90.8656 63.2367C90.7608 63.1048 90.683 62.9535 90.6367 62.7915C90.5904 62.6295 90.5764 62.46 90.5957 62.2927C90.6149 62.1253 90.6668 61.9633 90.7486 61.816L100.831 43.6927L81.8552 49.5332C81.6598 49.5932 81.4529 49.6057 81.2518 49.5696C81.0506 49.5334 80.861 49.4497 80.6987 49.3254C80.5365 49.2012 80.4063 49.0399 80.319 48.8551C80.2316 48.6703 80.1898 48.4673 80.1968 48.263L81.2445 20.0992L71.9372 33.8886C71.6533 34.3047 71.1606 34.5222 70.6663 34.4422C70.4256 34.4039 70.2007 34.2979 70.0181 34.1364C69.8354 33.975 69.7026 33.7649 69.6351 33.5306L64.474 15.7223L53.7887 44.5887C53.7246 44.7593 53.6251 44.9145 53.4966 45.0439C53.3682 45.1733 53.2139 45.2741 53.0437 45.3395C52.8735 45.4049 52.6914 45.4335 52.5094 45.4235C52.3273 45.4134 52.1495 45.3649 51.9876 45.2811L28.3493 32.9968L36.9745 55.5118C37.0519 55.7195 37.0744 55.9437 37.0399 56.1626C37.0055 56.3816 36.9152 56.5879 36.7779 56.7619C36.6405 56.9358 36.4606 57.0714 36.2556 57.1556C36.0506 57.2399 35.8274 57.2699 35.6074 57.2428L5.98029 53.3846C5.53165 53.3267 5.16864 53.0438 4.9846 52.6579Z" fill="#518F5A"/>
</g>
<defs>
<clipPath id="clip0_655_6">
<rect width="60.1667" height="95" fill="white" transform="translate(86) rotate(64.5)"/>
</clipPath>
</defs>
</svg>
