<svg width="43" height="68" viewBox="0 0 43 68" fill="none" xmlns="http://www.w3.org/2000/svg">
<g clip-path="url(#clip0_358_23)">
<path d="M9.04141 68.4605C8.87781 68.4577 8.71791 68.4114 8.57811 68.3263C8.43832 68.2413 8.32366 68.1206 8.24592 67.9766C8.16817 67.8326 8.13013 67.6706 8.1357 67.507C8.14126 67.3435 8.19024 67.1844 8.2776 67.046L19.0446 50.4118L0.990231 48.986C0.804695 48.9702 0.628302 48.8986 0.484257 48.7806C0.340212 48.6625 0.235264 48.5037 0.183219 48.3249C0.131174 48.1461 0.134471 47.9558 0.192675 47.7789C0.25088 47.602 0.361265 47.4469 0.50931 47.3339L16.8097 35.0224L0.260363 17.9977C0.126022 17.8593 0.0384811 17.6822 0.0100624 17.4914C-0.0183564 17.3006 0.0137777 17.1057 0.101942 16.9341C0.190308 16.7617 0.330979 16.6219 0.503776 16.5344C0.676572 16.447 0.872616 16.4166 1.06378 16.4475L14.9539 18.7389L8.29457 7.41182C8.19405 7.23995 8.15185 7.04015 8.17429 6.84231C8.19672 6.64446 8.28259 6.45919 8.41905 6.31419C8.55605 6.17039 8.73606 6.07498 8.93198 6.04232C9.1279 6.00967 9.32912 6.04154 9.50536 6.13314L29.0534 16.3683L31.2713 1.35222C31.184 1.23005 31.1281 1.08832 31.1084 0.939469C31.0887 0.790621 31.1059 0.639221 31.1585 0.498576C31.211 0.357931 31.2973 0.232349 31.4098 0.132869C31.5222 0.0333885 31.6574 -0.0369435 31.8034 -0.0719446C31.9494 -0.106946 32.1018 -0.105544 32.2471 -0.0678631C32.3924 -0.0301821 32.5263 0.0426246 32.6369 0.144157C32.7475 0.245689 32.8315 0.372837 32.8814 0.514425C32.9314 0.656013 32.9458 0.807704 32.9234 0.956164L42.8304 14.8916C42.9002 14.9896 42.95 15.1005 42.977 15.2178C43.004 15.3352 43.0076 15.4567 42.9877 15.5754C42.9677 15.6942 42.9246 15.8078 42.8607 15.9099C42.7968 16.0119 42.7134 16.1004 42.6154 16.1702C42.5173 16.2401 42.4064 16.2899 42.2891 16.3169C42.1717 16.3439 42.0502 16.3475 41.9315 16.3276C41.8127 16.3076 41.6991 16.2645 41.597 16.2006C41.495 16.1367 41.4065 16.0533 41.3367 15.9552L32.748 3.87564L30.6772 17.9129C30.6558 18.0574 30.6002 18.1947 30.515 18.3133C30.4298 18.432 30.3174 18.5285 30.1873 18.595C30.0572 18.6614 29.9132 18.6958 29.7671 18.6952C29.621 18.6947 29.4772 18.6592 29.3476 18.5918L11.5026 9.25064L17.5339 19.4971C17.715 19.8083 17.7036 20.193 17.5 20.4872C17.4012 20.6307 17.2636 20.7432 17.1033 20.8113C16.943 20.8794 16.7666 20.9005 16.5947 20.872L3.51931 18.722L18.8522 34.4962C18.9426 34.59 19.012 34.702 19.056 34.8246C19.1 34.9473 19.1175 35.0779 19.1073 35.2078C19.0972 35.3377 19.0596 35.4639 18.9971 35.5783C18.9346 35.6926 18.8486 35.7924 18.7447 35.871L3.5476 47.3396L20.725 48.7031C20.8827 48.7172 21.0343 48.7716 21.1649 48.8612C21.2955 48.9508 21.4009 49.0725 21.4708 49.2146C21.5407 49.3568 21.5729 49.5145 21.5641 49.6727C21.5554 49.8308 21.5061 49.9841 21.4209 50.1176L9.81655 68.0418C9.64115 68.3134 9.34694 68.4605 9.04141 68.4605Z" fill="#518F5A"/>
</g>
<defs>
<clipPath id="clip0_358_23">
<rect width="43" height="67.8948" fill="white"/>
</clipPath>
</defs>
</svg>
