<svg width="52" height="105" viewBox="0 0 52 105" fill="none" xmlns="http://www.w3.org/2000/svg">
<path d="M48.4809 13.7998C48.4809 13.7998 56.0445 29.3199 47.3361 45.5383C47.3361 45.5383 48.4809 39.2837 45.9242 27.9843C45.928 27.9843 51.2667 22.8631 48.4809 13.7998Z" fill="url(#paint0_linear_358_990)"/>
<path d="M18.0305 93.731C18.0305 93.731 20.3774 103.031 15.5882 103.71C15.5882 103.71 10.9325 99.0926 9.30306 91.0826L11.1195 88.5029L18.0305 93.731Z" fill="url(#paint1_linear_358_990)"/>
<path d="M12.6135 71.125C12.6135 71.125 25.2066 90.4039 41.8906 92.7127C41.8906 92.7127 36.052 97.872 28.9922 96.5288L15.4145 82.6802L12.6135 71.125Z" fill="url(#paint2_linear_358_990)"/>
<path d="M15.4146 82.6641C15.4146 82.6641 31.9803 96.1082 34.2891 104.797C34.2891 104.797 17.2234 98.6077 11.1406 88.5027L15.4146 82.6641Z" fill="url(#paint3_linear_358_990)"/>
<path d="M13.105 71.125C13.105 71.125 20.7105 84.8401 9.2889 91.0832L8.20512 88.5035C8.20512 88.5035 12.8875 83.8326 9.86894 75.1701L13.105 71.125Z" fill="url(#paint4_linear_358_990)"/>
<path d="M10.1313 74.8564C10.1313 74.8564 13.3788 83.7518 8.22328 88.5028C8.22328 88.5028 5.93362 82.3971 4.82695 77.3713L10.1313 74.8564Z" fill="url(#paint5_linear_358_990)"/>
<path d="M27.5985 59.1846C27.5985 59.1846 23.9694 65.9734 27.6328 71.6785H19.6915C19.6915 71.6785 16.776 69.2362 18.6726 60.2722L27.5985 59.1846Z" fill="url(#paint6_linear_358_990)"/>
<path d="M29.6719 19.1719C29.6719 19.1719 -9.02337 34.6042 1.96318 81.1721C1.96318 81.1721 2.38295 41.9349 29.6719 19.1719Z" fill="url(#paint7_linear_358_990)"/>
<path d="M31.707 22.385C31.707 22.385 12.0198 37.3174 13.1035 72.3454C13.1035 72.3454 4.82259 79.8135 1.97196 81.1721C1.97196 81.1721 0.00667 44.3772 29.6692 19.1719L31.707 22.385Z" fill="url(#paint8_linear_358_990)"/>
<path d="M17.6562 0.797852C17.6562 0.797852 49.6313 8.12858 47.8034 44.5838C47.8034 44.5838 42.0793 58.837 21.5296 61.8937C21.5258 61.8937 45.3535 24.2173 17.6562 0.797852Z" fill="url(#paint9_linear_358_990)"/>
<path d="M23.9603 3.10696C23.9603 3.10696 37.6983 -4.90684 47.872 12.609C47.872 12.609 53.2603 21.3135 46.151 28.5031C46.151 28.5031 39.8353 12.4717 23.9603 3.10696Z" fill="url(#paint10_linear_358_990)"/>
<path d="M30.486 22.8359C30.486 22.8359 34.0159 45.7325 13.1075 58.2265C13.1075 58.2265 13.1037 39.4474 30.486 22.8359Z" fill="url(#paint11_linear_358_990)"/>
<path d="M30.4846 22.8359C30.4846 22.8359 36.5904 46.3546 13.1061 72.346C13.1061 72.346 11.9384 67.4614 13.2015 56.597C13.2015 56.597 32.1943 45.5379 30.4846 22.8359Z" fill="url(#paint12_linear_358_990)"/>
<path d="M35.2665 72.5407C35.9229 72.5407 36.4571 72.182 36.4609 71.5218C36.4647 70.8617 35.9343 70.5487 35.2703 70.5449L13.114 70.6327C12.9655 70.6174 12.8155 70.6329 12.6733 70.6784C12.5311 70.7238 12.3998 70.7981 12.2876 70.8966C12.1755 70.9951 12.0849 71.1157 12.0216 71.2509C11.9583 71.3861 11.9235 71.5329 11.9196 71.6821C11.9196 72.3461 12.4462 72.6438 13.1102 72.6476L35.2588 72.5407H35.2665Z" fill="url(#paint13_linear_358_990)"/>
<path d="M25.6617 9.95605C25.6617 9.95605 47.6653 31.1087 38.0831 55.7493C38.0831 55.7493 29.4511 62.1489 21.1702 61.897C21.1702 61.8932 39.4455 33.5243 25.6617 9.95605Z" fill="url(#paint14_linear_358_990)"/>
<path d="M39.382 76.0475C40.3564 76.0475 41.3089 75.7586 42.1191 75.2172C42.9292 74.6759 43.5607 73.9065 43.9336 73.0063C44.3065 72.106 44.404 71.1155 44.2139 70.1598C44.0238 69.2041 43.5546 68.3263 42.8656 67.6373C42.1766 66.9483 41.2988 66.4791 40.3431 66.289C39.3875 66.0989 38.3969 66.1965 37.4967 66.5694C36.5965 66.9422 35.827 67.5737 35.2857 68.3839C34.7444 69.194 34.4554 70.1465 34.4554 71.1209C34.4564 72.4272 34.9758 73.6797 35.8995 74.6034C36.8232 75.5271 38.0757 76.0465 39.382 76.0475ZM39.382 68.5909C39.8833 68.5909 40.3734 68.7396 40.7902 69.0182C41.2069 69.2968 41.5317 69.6927 41.7234 70.156C41.915 70.6192 41.965 71.1289 41.8669 71.6205C41.7688 72.1121 41.5271 72.5636 41.1724 72.9178C40.8176 73.272 40.3658 73.5131 39.874 73.6104C39.3822 73.7078 38.8726 73.657 38.4097 73.4647C37.9467 73.2723 37.5513 72.9469 37.2733 72.5297C36.9953 72.1125 36.8474 71.6222 36.8481 71.1209C36.8481 70.7884 36.9137 70.459 37.0411 70.1518C37.1684 69.8446 37.3552 69.5655 37.5905 69.3305C37.8258 69.0956 38.1052 68.9093 38.4126 68.7823C38.72 68.6554 39.0494 68.5903 39.382 68.5909Z" fill="url(#paint15_linear_358_990)"/>
<path d="M34.6274 13.799C33.5673 13.799 32.7079 12.9396 32.7079 11.8795C32.7079 10.8194 33.5673 9.95996 34.6274 9.95996C35.6875 9.95996 36.5469 10.8194 36.5469 11.8795C36.5469 12.9396 35.6875 13.799 34.6274 13.799Z" fill="#0E192D"/>
<defs>
<linearGradient id="paint0_linear_358_990" x1="-944.214" y1="708.874" x2="-525.732" y2="2317.84" gradientUnits="userSpaceOnUse">
<stop stop-color="#27D885"/>
<stop offset="1" stop-color="#2B6A67"/>
</linearGradient>
<linearGradient id="paint1_linear_358_990" x1="11.7797" y1="87.4001" x2="18.9082" y2="107.767" gradientUnits="userSpaceOnUse">
<stop stop-color="#2B6A67"/>
<stop offset="1" stop-color="#27AF85"/>
</linearGradient>
<linearGradient id="paint2_linear_358_990" x1="-6495.11" y1="6062.96" x2="-7148.3" y2="5107.27" gradientUnits="userSpaceOnUse">
<stop stop-color="#2B6A67"/>
<stop offset="1" stop-color="#27AF85"/>
</linearGradient>
<linearGradient id="paint3_linear_358_990" x1="23.291" y1="100.115" x2="19.5627" y2="77.726" gradientUnits="userSpaceOnUse">
<stop stop-color="#27AF85"/>
<stop offset="1" stop-color="#2B6A67"/>
</linearGradient>
<linearGradient id="paint4_linear_358_990" x1="-1989.93" y1="4693.64" x2="-2040.01" y2="3701.51" gradientUnits="userSpaceOnUse">
<stop stop-color="#27D885"/>
<stop offset="1" stop-color="#2B6A67"/>
</linearGradient>
<linearGradient id="paint5_linear_358_990" x1="-1733.96" y1="3032.98" x2="-2041.3" y2="2778.99" gradientUnits="userSpaceOnUse">
<stop stop-color="#2B6A67"/>
<stop offset="1" stop-color="#27AF85"/>
</linearGradient>
<linearGradient id="paint6_linear_358_990" x1="16.6844" y1="60.4859" x2="29.3539" y2="69.4728" gradientUnits="userSpaceOnUse">
<stop stop-color="#C4C737"/>
<stop offset="1" stop-color="#43865D"/>
</linearGradient>
<linearGradient id="paint7_linear_358_990" x1="-9645.64" y1="7856" x2="-7555.91" y2="7902.37" gradientUnits="userSpaceOnUse">
<stop stop-color="#27D885"/>
<stop offset="1" stop-color="#2B6A67"/>
</linearGradient>
<linearGradient id="paint8_linear_358_990" x1="-7696.88" y1="7368.67" x2="-7159.26" y2="13162.1" gradientUnits="userSpaceOnUse">
<stop stop-color="#27D885"/>
<stop offset="1" stop-color="#2B6A67"/>
</linearGradient>
<linearGradient id="paint9_linear_358_990" x1="37.5992" y1="17.9322" x2="22.4989" y2="34.9901" gradientUnits="userSpaceOnUse">
<stop stop-color="#BAC937"/>
<stop offset="1" stop-color="#00475D"/>
</linearGradient>
<linearGradient id="paint10_linear_358_990" x1="-4414.17" y1="1006.72" x2="-6167.75" y2="1006.72" gradientUnits="userSpaceOnUse">
<stop stop-color="#27D885"/>
<stop offset="1" stop-color="#2B6A67"/>
</linearGradient>
<linearGradient id="paint11_linear_358_990" x1="22.5752" y1="23.561" x2="21.3923" y2="57.6769" gradientUnits="userSpaceOnUse">
<stop stop-color="#BAC937"/>
<stop offset="1" stop-color="#00665D"/>
</linearGradient>
<linearGradient id="paint12_linear_358_990" x1="-4536.98" y1="6377.45" x2="-4598.91" y2="8219.91" gradientUnits="userSpaceOnUse">
<stop stop-color="#BAC937"/>
<stop offset="1" stop-color="#00665D"/>
</linearGradient>
<linearGradient id="paint13_linear_358_990" x1="36.4609" y1="71.5791" x2="11.9119" y2="71.5791" gradientUnits="userSpaceOnUse">
<stop stop-color="#D1DB37"/>
<stop offset="1" stop-color="#43865D"/>
</linearGradient>
<linearGradient id="paint14_linear_358_990" x1="-4266.77" y1="4669.71" x2="-6163.63" y2="5924.41" gradientUnits="userSpaceOnUse">
<stop stop-color="#BAC937"/>
<stop offset="1" stop-color="#00665D"/>
</linearGradient>
<linearGradient id="paint15_linear_358_990" x1="-1798.53" y1="1881.94" x2="-2052.94" y2="1881.94" gradientUnits="userSpaceOnUse">
<stop stop-color="#D1DB37"/>
<stop offset="1" stop-color="#43865D"/>
</linearGradient>
</defs>
</svg>
